<?xml version="1.0" standalone="no"?><!DOCTYPE svg PUBLIC "-//W3C//DTD SVG 1.1//EN" "http://www.w3.org/Graphics/SVG/1.1/DTD/svg11.dtd"><svg t="1678874562358" class="icon" viewBox="0 0 1024 1024" version="1.1" xmlns="http://www.w3.org/2000/svg" p-id="5823" xmlns:xlink="http://www.w3.org/1999/xlink" width="64" height="64"><path d="M896 337.066667l123.733333-25.6-123.733333 136.533333z" fill="#4B369D" p-id="5824"></path><path d="M409.6 580.266667s187.733333-268.8 123.733333-328.533334-106.666667-34.133333-81.066666-64c25.6-29.866667 209.066667-76.8 405.333333 38.4s-59.733333 486.4-179.2 571.733334-358.4 196.266667-516.266667 170.666666-89.6-89.6-76.8-89.6 209.066667-98.133333 324.266667-298.666666z" fill="#A7ADFF" p-id="5825"></path><path d="M392.533333 332.8s-157.866667-42.666667-204.8-85.333333-85.333333-102.4-145.066666-93.866667C-25.6 162.133333 12.8 349.866667 106.666667 384s102.4 38.4 72.533333 72.533333-51.2 81.066667-8.533333 85.333334 51.2 4.266667 59.733333 51.2c4.266667 46.933333 76.8 21.333333 93.866667 38.4s51.2 110.933333 162.133333 76.8c106.666667-34.133333 162.133333-93.866667 157.866667-136.533334s-42.666667-153.6-251.733334-238.933333z" fill="#978CFF" p-id="5826"></path><path d="M776.533333 311.466667m-29.866666 0a29.866667 29.866667 0 1 0 59.733333 0 29.866667 29.866667 0 1 0-59.733333 0Z" fill="#4B369D" p-id="5827"></path></svg>